<?xml version="1.0" encoding="utf-8"?>
<!-- Generator: Adobe Illustrator 27.6.1, SVG Export Plug-In . SVG Version: 6.00 Build 0)  -->
<svg version="1.1" id="レイヤー_1" xmlns="http://www.w3.org/2000/svg" xmlns:xlink="http://www.w3.org/1999/xlink" x="0px"
	 y="0px" viewBox="0 0 349.8 241.1" style="enable-background:new 0 0 349.8 241.1;" xml:space="preserve">
<style type="text/css">
	.st0{fill:#FFFFFF;stroke:#FFFFFF;stroke-width:1.6113;}
	.st1{fill:#FFFFFF;}
	.st2{fill:#FFFFFF;stroke:#FFFFFF;stroke-width:0.2014;stroke-dasharray:0.4028,0.4028;}
</style>
<line class="st0" x1="0.3" y1="240.4" x2="349.5" y2="240.4"/>
<line class="st0" x1="0.3" y1="139.9" x2="349.5" y2="0.8"/>
<path class="st0" d="M0.3,144.2"/>
<path class="st0" d="M0.3,144.2"/>
<polyline class="st1" points="0.3,144.2 349.5,10 349.5,27.7 "/>
<polyline class="st1" points="0.3,236.1 349.5,231.2 349.5,215.2 "/>
<path class="st2" d="M0.3,153.4"/>
<path class="st2" d="M349.5,44"/>
<path class="st2" d="M349.5,44"/>
<path class="st2" d="M0.3,153.4"/>
<path class="st2" d="M349.5,196.9"/>
<path class="st2" d="M0.3,226.8"/>
<polyline class="st1" points="22.8,146.4 22.8,224.9 32.2,224.1 32.2,143.4 "/>
<polyline class="st1" points="100.5,122.1 100.5,130.9 41.4,149.1 41.4,139.9 "/>
<polyline class="st1" points="66.4,221.2 66.4,139.9 76.1,138.4 76.1,220.4 "/>
<polyline class="st1" points="187.1,94.9 187.1,210.9 196.5,210.1 196.5,92.6 "/>
<polyline class="st1" points="242,206.2 242,77.7 233,80.5 233,206.9 "/>
<polyline class="st1" points="196.5,144.7 233,135.4 233,144.7 196.5,153.9 "/>
<polyline class="st1" points="315.3,199.9 315.3,53.7 324.6,51.8 324.6,199.4 "/>
<polyline class="st1" points="265.8,70.1 301.6,59 267.4,69.7 267.4,203.9 258.1,204.4 258.1,72.6 "/>
<path class="st2" d="M301.6,68.1V59V68.1z"/>
<polyline class="st1" points="301.6,59 301.6,68.1 267.4,78.2 267.4,69.7 "/>
<polyline class="st1" points="267.4,203.9 301.6,201.1 301.6,191.8 267.4,194.9 "/>
<path class="st2" d="M267.4,126.9"/>
<polyline class="st1" points="267.4,126.9 295.2,120.5 295.2,130.2 267.4,135.8 "/>
<path class="st1" d="M136.2,112.3c-15,0-27.2,22.9-27.2,51.2s12.2,51.2,27.2,51.2s27.2-22.9,27.2-51.2S151.2,112.3,136.2,112.3z
	 M136.1,203.6c-10.8,0-19.6-17.6-19.6-39.2c0-21.7,8.8-39.2,19.6-39.2c10.8,0,19.6,17.5,19.6,39.2S146.9,203.6,136.1,203.6z"/>
</svg>
